<?xml version="1.0" standalone="no"?>
<!DOCTYPE svg PUBLIC "-//W3C//DTD SVG 20010904//EN"
 "http://www.w3.org/TR/2001/REC-SVG-20010904/DTD/svg10.dtd">
<svg version="1.0" xmlns="http://www.w3.org/2000/svg"
 width="319.000000pt" height="367.000000pt" viewBox="0 0 319.000000 367.000000"
 preserveAspectRatio="xMidYMid meet">

<g transform="translate(0.000000,367.000000) scale(0.100000,-0.100000)"
fill="#000000" stroke="none">
<path d="M1220 3654 c-163 -32 -318 -136 -410 -278 -87 -132 -119 -328 -76
-471 46 -156 170 -313 303 -383 172 -91 378 -94 552 -9 96 46 225 177 275 277
163 331 -13 733 -371 846 -48 15 -226 27 -273 18z m230 -101 c221 -60 390
-275 390 -493 -1 -193 -125 -392 -294 -471 -243 -114 -506 -37 -665 195 -51
74 -72 153 -73 276 -1 126 16 180 93 289 78 111 186 187 299 210 108 22 153
21 250 -6z"/>
<path d="M1070 2240 c-546 -76 -953 -409 -1044 -852 -22 -107 -21 -140 7 -166
30 -29 247 -131 382 -180 124 -45 343 -102 485 -126 125 -21 396 -47 415 -40
10 4 15 20 15 44 l0 37 -82 7 c-157 13 -333 37 -457 62 -276 55 -679 216 -682
272 -3 50 5 96 32 177 104 311 416 563 807 650 416 93 865 21 1194 -191 37
-24 81 -50 97 -59 32 -16 121 -21 121 -6 0 5 -31 34 -69 65 -177 145 -425 251
-681 292 -115 18 -450 26 -540 14z"/>
<path d="M2161 1717 c-32 -16 -62 -67 -76 -131 -9 -41 -18 -54 -44 -69 -32
-19 -32 -19 -69 6 -112 77 -197 59 -307 -67 -74 -83 -80 -143 -24 -230 50 -79
32 -127 -52 -140 -49 -8 -94 -35 -124 -75 -17 -22 -20 -41 -20 -131 1 -125 15
-174 59 -201 17 -10 38 -19 46 -19 27 0 117 -47 124 -65 4 -11 -7 -41 -29 -80
-53 -96 -46 -146 32 -242 87 -106 175 -129 284 -72 89 46 114 33 135 -71 18
-94 64 -120 214 -120 158 0 193 22 221 136 13 55 34 84 60 84 9 0 46 -13 81
-30 69 -33 124 -38 166 -16 40 21 150 139 167 180 21 51 19 67 -20 140 -19 37
-35 75 -35 85 0 28 31 50 96 67 101 26 134 78 134 210 0 135 -33 189 -136 220
-67 20 -94 39 -94 65 0 10 16 48 35 85 58 109 49 139 -74 257 -77 73 -83 77
-127 77 -29 0 -71 -11 -117 -31 -65 -29 -74 -30 -96 -18 -17 10 -30 31 -41 69
-25 84 -46 117 -81 129 -44 15 -257 14 -288 -2z m256 -90 c8 -8 21 -45 29 -83
8 -37 19 -73 25 -80 5 -6 41 -24 80 -38 l70 -26 56 36 c100 64 96 64 174 -14
47 -47 69 -76 69 -93 0 -13 -18 -53 -39 -88 -42 -68 -42 -62 -3 -151 25 -58
37 -68 102 -80 96 -18 108 -37 111 -164 2 -53 -1 -62 -25 -82 -14 -13 -43 -26
-64 -29 -87 -13 -105 -29 -141 -121 l-20 -51 40 -64 c21 -35 39 -74 39 -87 0
-15 -24 -47 -68 -93 -77 -79 -71 -78 -168 -17 l-61 38 -69 -26 c-38 -14 -74
-30 -81 -35 -6 -6 -16 -40 -23 -76 -6 -37 -15 -74 -21 -84 -11 -22 -116 -35
-180 -22 -42 8 -45 11 -61 58 -10 28 -22 68 -27 90 -10 39 -13 41 -86 67 l-76
27 -47 -34 c-78 -55 -94 -59 -139 -26 -52 38 -113 107 -113 129 0 9 18 44 40
77 22 33 40 66 40 72 0 27 -63 153 -79 157 -9 3 -41 10 -72 16 -79 15 -93 34
-97 129 -4 110 5 121 105 146 l82 19 21 48 c38 87 37 101 -10 177 -27 46 -40
77 -36 89 7 22 109 122 142 140 17 9 31 5 85 -29 75 -46 96 -47 167 -14 55 26
61 34 86 126 9 31 21 61 28 67 31 25 190 25 215 -1z"/>
<path d="M2213 1186 c-135 -44 -222 -157 -231 -301 -11 -183 127 -332 318
-343 68 -4 85 -1 133 21 74 34 141 97 174 165 23 48 27 68 27 141 0 102 -27
174 -89 236 -79 78 -229 115 -332 81z m192 -95 c52 -24 121 -99 134 -147 27
-95 4 -180 -65 -246 -68 -65 -146 -83 -238 -56 -59 18 -141 100 -156 158 -25
95 11 211 81 261 71 50 172 63 244 30z"/>
</g>
</svg>
