<?xml version="1.0" encoding="UTF-8"?>
<svg version="1.1" xmlns="http://www.w3.org/2000/svg" width="87" height="100">
<path d="M0 0 C3.82825694 0.03430338 3.82825694 0.03430338 6.125 2.1875 C7.125 4.3125 7.125 4.3125 7.125 6.3125 C8.341875 6.044375 9.55875 5.77625 10.8125 5.5 C14.41785202 5.05735002 14.94794508 5.1968723 18.1875 7.3125 C20.125 10.3125 20.125 10.3125 19.9375 14.125 C19.669375 15.176875 19.40125 16.22875 19.125 17.3125 C19.95 17.621875 20.775 17.93125 21.625 18.25 C24.125 20.3125 24.125 20.3125 24.5625 22.4453125 C24.62461379 24.85998604 24.66214053 26.95355784 24.125 29.3125 C21.125 31.3125 21.125 31.3125 18.125 31.3125 C18.475625 31.869375 18.82625 32.42625 19.1875 33 C20.39000195 35.96617147 20.17698158 37.30683836 19.125 40.3125 C17.5 42.6875 17.5 42.6875 15.125 44.3125 C11.375 44.0625 11.375 44.0625 8.125 43.3125 C7.83625 44.1375 7.5475 44.9625 7.25 45.8125 C5.125 48.3125 5.125 48.3125 2.8046875 48.8203125 C0.09881544 48.9386451 -2.2271897 48.8919871 -4.875 48.3125 C-7 45.8125 -7 45.8125 -7.875 43.3125 C-9.4528125 43.745625 -9.4528125 43.745625 -11.0625 44.1875 C-14.875 44.3125 -14.875 44.3125 -16.48828125 43.18359375 C-18.49844591 40.92428193 -19.92752197 39.2316344 -19.75 36.125 C-19.46125 35.526875 -19.1725 34.92875 -18.875 34.3125 C-18.545 33.3225 -18.215 32.3325 -17.875 31.3125 C-18.679375 31.168125 -19.48375 31.02375 -20.3125 30.875 C-22.875 30.3125 -22.875 30.3125 -23.875 29.3125 C-24.30023079 26.26298774 -24.38985091 23.3523112 -23.875 20.3125 C-21.375 18.25 -21.375 18.25 -18.875 17.3125 C-19.143125 16.260625 -19.41125 15.20875 -19.6875 14.125 C-19.875 10.3125 -19.875 10.3125 -17.9375 7.3125 C-14.69794508 5.1968723 -14.16785202 5.05735002 -10.5625 5.5 C-8.7371875 5.9021875 -8.7371875 5.9021875 -6.875 6.3125 C-6.565625 5.508125 -6.25625 4.70375 -5.9375 3.875 C-4.48061661 0.36134005 -4.48061661 0.36134005 0 0 Z M-2.875 4.3125 C-3.205 5.9625 -3.535 7.6125 -3.875 9.3125 C-7.21752724 9.38677838 -9.6785914 9.37796953 -12.875 8.3125 C-14.56181738 9.41291919 -14.56181738 9.41291919 -15.875 11.3125 C-15.5394218 14.32599195 -15.5394218 14.32599195 -14.875 17.3125 C-15.205 18.3025 -15.535 19.2925 -15.875 20.3125 C-18.4375 21.5 -18.4375 21.5 -20.875 22.3125 C-20.875 23.9625 -20.875 25.6125 -20.875 27.3125 C-20.070625 27.539375 -19.26625 27.76625 -18.4375 28 C-15.875 29.3125 -15.875 29.3125 -15 31.6875 C-14.88135513 34.17904217 -15.09107764 35.96073293 -15.875 38.3125 C-14.555 39.3025 -13.235 40.2925 -11.875 41.3125 C-11.2975 40.94125 -10.72 40.57 -10.125 40.1875 C-7.875 39.3125 -7.875 39.3125 -5.6875 39.9375 C-3.875 41.3125 -3.875 41.3125 -3.125 43.4375 C-3.00125 44.365625 -3.00125 44.365625 -2.875 45.3125 C-0.895 45.3125 1.085 45.3125 3.125 45.3125 C3.3725 44.508125 3.62 43.70375 3.875 42.875 C5.125 40.3125 5.125 40.3125 7 39.375 C9.57282067 39.2993288 10.94811446 39.99081949 13.125 41.3125 C14.83235301 40.27681405 14.83235301 40.27681405 16.125 38.3125 C15.79584112 34.75829041 15.79584112 34.75829041 15.125 31.3125 C16.51695915 28.5285817 18.28075779 28.33351003 21.125 27.3125 C21.125 25.6625 21.125 24.0125 21.125 22.3125 C20.320625 22.085625 19.51625 21.85875 18.6875 21.625 C16.125 20.3125 16.125 20.3125 15.25 17.9375 C15.13135513 15.44595783 15.34107764 13.66426707 16.125 11.3125 C14.48790685 9.62385412 14.48790685 9.62385412 12.125 8.3125 C9.02573181 8.63448966 9.02573181 8.63448966 6.125 9.3125 C5.465 8.9825 4.805 8.6525 4.125 8.3125 C3.5 6.25 3.5 6.25 3.125 4.3125 C1.145 4.3125 -0.835 4.3125 -2.875 4.3125 Z " fill="#FF3221" transform="translate(62.875,51.6875)"/>
<path d="M0 0 C1.86328125 1.5 1.86328125 1.5 2.86328125 4.5 C-1.2698704 4.17369855 -4.23660396 3.00793705 -7.82421875 1.0625 C-17.59824237 -3.97791577 -28.29290659 -4.76350008 -38.87109375 -1.7109375 C-47.98163335 1.68480908 -53.08712654 5.25287526 -57.19140625 14.1953125 C-57.90612399 15.93780615 -58.54114293 17.71327254 -59.13671875 19.5 C-58.25886719 19.78875 -57.38101563 20.0775 -56.4765625 20.375 C-54.45885922 21.05464742 -52.44820631 21.75656359 -50.453125 22.5 C-42.38438694 25.42992474 -34.63640235 26.61751919 -26.13671875 27.5 C-26.13671875 28.82 -26.13671875 30.14 -26.13671875 31.5 C-39.08687978 30.33387176 -50.93862522 28.62605952 -62.13671875 21.5 C-62.76342174 13.9795641 -60.13948926 9.41832274 -55.94921875 3.3125 C-40.98768248 -11.64903627 -17.05365438 -10.44434335 0 0 Z " fill="#FF3221" transform="translate(62.13671875,45.5)"/>
<path d="M0 0 C5.45466794 2.38021874 8.75390629 6.55754218 11 12 C12.00930825 17.62736956 11.25470046 22.22643933 8 27 C4.05835755 30.77026669 0.53230896 33.94747496 -5.1015625 34.03125 C-11.74408046 33.58693442 -15.80276269 31.43477648 -20.3125 26.4375 C-23.49293734 21.84353495 -23.50021734 17.40049459 -23 12 C-19.20895264 1.04808541 -10.54277899 -0.9534099 0 0 Z M-17.8125 8.8125 C-19.52125109 11.96019937 -19.87865751 14.42039641 -20 18 C-18.50624711 22.63849581 -16.80130239 25.91144181 -13 29 C-9.27400457 30.24199848 -5.87020783 30.53508555 -2 30 C1.85247583 27.96472975 4.90224752 25.86428089 7 22 C8.48566947 16.37567987 7.85712535 13.04758812 5 8 C1.3683442 4.54992699 -1.29691079 3.16066879 -6.3125 2.6875 C-11.45721514 3.12349281 -14.22447454 5.22447454 -17.8125 8.8125 Z " fill="#FF3221" transform="translate(42,0)"/>
<path d="M0 0 C3.14249107 2.02952548 4.63745366 3.46955631 5.51171875 7.16015625 C5.75802839 10.43881119 5.73398271 12.91530883 3.85546875 15.69140625 C1.43005003 17.93763837 -0.79056388 18.95636748 -4 19.625 C-8.16792934 18.75668139 -10.11123215 17.09030979 -13 14 C-14.38666474 10.16627983 -14.21605148 8.56173386 -12.75 4.75 C-9.55674481 -0.26797245 -5.62372858 -1.02846398 0 0 Z M-8.25 4.6875 C-10.18010547 6.86904316 -10.18010547 6.86904316 -10.4375 9.5625 C-10.15485315 11.99926829 -10.15485315 11.99926829 -8.875 13.8125 C-6.12844028 15.55198782 -4.18153026 15.39769128 -1 15 C1.08333333 14.08333333 1.08333333 14.08333333 2 12 C2.00082535 8.42243314 2.00082535 8.42243314 1 5 C-2.63308656 2.57794229 -4.62619015 1.96964262 -8.25 4.6875 Z " fill="#FF3221" transform="translate(67,67)"/>
</svg>
