<?xml version="1.0" standalone="no"?>
<!DOCTYPE svg PUBLIC "-//W3C//DTD SVG 20010904//EN"
 "http://www.w3.org/TR/2001/REC-SVG-20010904/DTD/svg10.dtd">
<svg version="1.0" xmlns="http://www.w3.org/2000/svg"
 width="512.000000pt" height="512.000000pt" viewBox="0 0 512.000000 512.000000"
 preserveAspectRatio="xMidYMid meet">

<g transform="translate(0.000000,512.000000) scale(0.100000,-0.100000)"
fill="#000000" stroke="none">
<path d="M1495 3701 c-96 -55 -133 -176 -84 -274 14 -27 160 -181 410 -432
l389 -391 0 -44 0 -44 -389 -391 c-250 -251 -396 -405 -410 -432 -68 -137 35
-304 188 -303 92 1 112 17 526 431 l391 389 44 0 44 0 391 -389 c415 -415 434
-430 526 -431 151 0 252 160 188 300 -15 34 -119 144 -410 435 l-389 391 0 44
0 44 389 391 c414 414 430 434 431 526 1 153 -166 256 -303 188 -27 -14 -181
-160 -432 -410 l-391 -389 -44 0 -44 0 -391 389 c-251 250 -405 396 -432 410
-63 31 -135 28 -198 -8z"/>
</g>
</svg>
