<?xml version="1.0" encoding="UTF-8"?>
<svg version="1.1" xmlns="http://www.w3.org/2000/svg" width="20" height="27">
<path d="M0 0 C0.825 -0.00257812 1.65 -0.00515625 2.5 -0.0078125 C5.08490572 0.12951062 7.47021418 0.59427202 10 1.125 C9.86152362 4.75032066 9.71297357 8.37515904 9.5625 12 C9.52318359 13.03253906 9.48386719 14.06507812 9.44335938 15.12890625 C9.40146484 16.11503906 9.35957031 17.10117187 9.31640625 18.1171875 C9.27974854 19.02839355 9.24309082 19.93959961 9.20532227 20.87841797 C9 23.125 9 23.125 8 25.125 C5.35409986 25.15184679 2.70846904 25.17176357 0.0625 25.1875 C-0.69224609 25.19587891 -1.44699219 25.20425781 -2.22460938 25.21289062 C-4.14994313 25.22152441 -6.07535581 25.17724333 -8 25.125 C-9.68300669 23.44199331 -9.22809077 21.30491273 -9.31640625 18.99609375 C-9.35830078 17.96162109 -9.40019531 16.92714844 -9.44335938 15.86132812 C-9.48267578 14.77271484 -9.52199219 13.68410156 -9.5625 12.5625 C-9.60568359 11.47001953 -9.64886719 10.37753906 -9.69335938 9.25195312 C-9.79982068 6.54310436 -9.90183516 3.83416008 -10 1.125 C-6.59633902 0.41094029 -3.48207695 -0.01088149 0 0 Z " fill="#FF3321" transform="translate(10,0.875)"/>
</svg>
