<?xml version="1.0" encoding="UTF-8"?>
<svg version="1.1" xmlns="http://www.w3.org/2000/svg" width="30" height="30">
<path d="M0 0 C1.38294718 0.01329757 2.76582404 0.03715018 4.1484375 0.0703125 C4.85484375 0.07933594 5.56125 0.08835938 6.2890625 0.09765625 C8.03399848 0.12123647 9.77876045 0.15710789 11.5234375 0.1953125 C10.37170395 2.66331297 9.47560185 4.24314815 7.5234375 6.1953125 C4.50517097 6.46771923 1.55973128 6.28206375 -1.4765625 6.1953125 C-1.4765625 10.8153125 -1.4765625 15.4353125 -1.4765625 20.1953125 C3.8034375 20.1953125 9.0834375 20.1953125 14.5234375 20.1953125 C14.5234375 16.5653125 14.5234375 12.9353125 14.5234375 9.1953125 C15.8434375 8.5353125 17.1634375 7.8753125 18.5234375 7.1953125 C18.57727598 9.65393651 18.61702788 12.111388 18.6484375 14.5703125 C18.66519531 15.26898438 18.68195312 15.96765625 18.69921875 16.6875 C18.71688017 18.52428736 18.62647011 20.36133213 18.5234375 22.1953125 C16.07356818 24.64518182 15.3863595 24.45162561 12.0234375 24.4609375 C11.1365625 24.46351562 10.2496875 24.46609375 9.3359375 24.46875 C8.4078125 24.46101563 7.4796875 24.45328125 6.5234375 24.4453125 C5.13125 24.45691406 5.13125 24.45691406 3.7109375 24.46875 C2.380625 24.46488281 2.380625 24.46488281 1.0234375 24.4609375 C0.20875 24.45868164 -0.6059375 24.45642578 -1.4453125 24.45410156 C-3.4765625 24.1953125 -3.4765625 24.1953125 -5.4765625 22.1953125 C-5.73535156 20.1640625 -5.73535156 20.1640625 -5.7421875 17.6953125 C-5.74476562 16.8084375 -5.74734375 15.9215625 -5.75 15.0078125 C-5.73839844 13.615625 -5.73839844 13.615625 -5.7265625 12.1953125 C-5.73429688 11.2671875 -5.74203125 10.3390625 -5.75 9.3828125 C-5.74742188 8.4959375 -5.74484375 7.6090625 -5.7421875 6.6953125 C-5.73993164 5.880625 -5.73767578 5.0659375 -5.73535156 4.2265625 C-5.24411962 0.37085517 -3.65627385 0.20540864 0 0 Z " fill="#FF3221" transform="translate(8.4765625,2.8046875)"/>
<path d="M0 0 C1.65 0.33 3.3 0.66 5 1 C4.52406444 5.28342007 2.05238315 7.15573389 -1 10 C-2.2684375 11.3921875 -2.2684375 11.3921875 -3.5625 12.8125 C-6 15 -6 15 -10 15 C-10.35142196 11.76351714 -10.30933949 10.41221285 -8.3203125 7.76171875 C-7.23363281 6.73498047 -7.23363281 6.73498047 -6.125 5.6875 C-5.40570312 4.99011719 -4.68640625 4.29273438 -3.9453125 3.57421875 C-2 2 -2 2 0 2 C0 1.34 0 0.68 0 0 Z " fill="#FF3323" transform="translate(25,0)"/>
</svg>
