<?xml version="1.0" encoding="UTF-8"?>
<svg version="1.1" xmlns="http://www.w3.org/2000/svg" width="30" height="30">
<path d="M0 0 C3.12325867 1.756833 4.49010195 3.18879855 6.375 6.1875 C7.02963891 9.13337511 6.73937745 10.42888969 6.125 13.3125 C5.66159625 15.65099298 5.66159625 15.65099298 6 18 C7.86384873 20.42257684 9.85190739 22.24246968 12.21484375 24.17578125 C14 26 14 26 14 30 C11.10204874 29.9121833 9.43885685 29.46281429 7.42578125 27.33984375 C6.59626953 26.36724609 6.59626953 26.36724609 5.75 25.375 C3.25605274 22.60854767 3.25605274 22.60854767 -0.23828125 21.8671875 C-1.78226283 22.12149035 -3.32188091 22.40394604 -4.85546875 22.71484375 C-8.26962615 23.16882096 -10.24282679 21.90376245 -13 20 C-16.42978145 16.2182362 -16.50179138 13.35668697 -16.36328125 8.4140625 C-15.85426028 5.03153604 -14.49711098 3.27677766 -12 1 C-8.29512168 -0.85243916 -4.04385812 -0.4585162 0 0 Z M-10.375 5.625 C-12.48706506 8.71186432 -12.61195145 10.3282913 -12 14 C-10.5 16.5 -10.5 16.5 -8 18 C-4.3282913 18.61195145 -2.71186432 18.48706506 0.375 16.375 C2.48706506 13.28813568 2.61195145 11.6717087 2 8 C0.5 5.5 0.5 5.5 -2 4 C-5.6717087 3.38804855 -7.28813568 3.51293494 -10.375 5.625 Z " fill="#212121" transform="translate(16,0)"/>
</svg>
