<?xml version="1.0" standalone="no"?>
<!DOCTYPE svg PUBLIC "-//W3C//DTD SVG 20010904//EN"
 "http://www.w3.org/TR/2001/REC-SVG-20010904/DTD/svg10.dtd">
<svg version="1.0" xmlns="http://www.w3.org/2000/svg"
 width="95.000000pt" height="100.000000pt" viewBox="0 0 95.000000 100.000000"
 preserveAspectRatio="xMidYMid meet">

<g transform="translate(0.000000,100.000000) scale(0.100000,-0.100000)"
fill="#000000" stroke="none">
<path d="M407 987 c-112 -35 -175 -153 -142 -265 33 -111 141 -175 254 -151
44 9 63 20 101 58 93 93 90 225 -5 309 -27 23 -63 44 -90 51 -53 13 -69 13
-118 -2z m154 -43 c70 -35 110 -127 90 -204 -24 -90 -91 -142 -182 -142 -136
0 -223 146 -160 269 46 90 159 125 252 77z"/>
<path d="M313 475 c-110 -30 -209 -98 -260 -177 -20 -32 -53 -132 -53 -161 0
-12 155 -82 225 -100 216 -58 445 -39 643 54 l83 38 -6 38 c-11 61 -55 144
-102 190 -53 51 -167 109 -242 123 -76 14 -226 11 -288 -5z m300 -30 c152 -40
263 -136 296 -258 l10 -39 -72 -33 c-122 -57 -222 -78 -372 -78 -149 1 -276
28 -382 82 l-61 30 9 42 c5 23 15 51 21 63 43 83 141 158 243 187 76 22 231
24 308 4z"/>
</g>
</svg>
