<?xml version="1.0" encoding="UTF-8"?>
<svg version="1.1" xmlns="http://www.w3.org/2000/svg" width="96" height="100">
<path d="M0 0 C0.85142578 -0.01224609 1.70285156 -0.02449219 2.58007812 -0.03710938 C15.60017341 -0.06685826 28.04586762 4.17501761 38.078125 12.62109375 C44.02143324 18.92847882 48.36839081 25.40402345 48.4375 34.25 C48.355 35.549375 48.2725 36.84875 48.1875 38.1875 C27.83691555 50.7341527 2.1260751 53.77283446 -21.21118164 49.05883789 C-30.37116202 46.82889655 -39.94499761 43.43250159 -47.8125 38.1875 C-47.10888361 27.28144591 -43.98177591 18.69352777 -35.8125 11.1875 C-25.23263005 2.5476062 -13.3461982 0.00996729 0 0 Z M-24.8125 10.1875 C-25.44800781 10.47367188 -26.08351563 10.75984375 -26.73828125 11.0546875 C-35.07468024 15.23212912 -39.28316062 22.19838056 -42.28125 30.76953125 C-43.05607707 33.31083498 -43.05607707 33.31083498 -41.8125 36.1875 C-39.53599628 37.34229185 -37.37665559 38.29085134 -35 39.1875 C-34.32509521 39.44877686 -33.65019043 39.71005371 -32.95483398 39.97924805 C-9.16828393 48.96191482 14.79871483 48.09902653 38.1875 38.1875 C39.87506133 37.22317924 41.54997658 36.23454099 43.1875 35.1875 C42.93449726 28.22992456 40.79605892 23.4683951 36.1875 18.1875 C35.5275 18.1875 34.8675 18.1875 34.1875 18.1875 C33.99542969 17.60226563 33.80335937 17.01703125 33.60546875 16.4140625 C31.59493998 13.25703385 28.78352771 12.10688556 25.5 10.5625 C24.89994141 10.2634375 24.29988281 9.964375 23.68164062 9.65625 C8.08823601 2.08566043 -9.30886192 2.7786818 -24.8125 10.1875 Z " fill="#FF3221" transform="translate(47.8125,49.8125)"/>
<path d="M0 0 C1.20269531 -0.02578125 2.40539062 -0.0515625 3.64453125 -0.078125 C10.12890474 0.52241235 13.92231638 3.52371544 18.1875 8.25 C21.90290322 12.76156106 22.36343943 16.26726001 22.4375 22.0625 C22.46328125 23.26519531 22.4890625 24.46789062 22.515625 25.70703125 C21.93910236 31.93210311 19.34552706 35.56436011 14.6875 39.5625 C13.9140625 40.23925781 13.140625 40.91601562 12.34375 41.61328125 C6.93229018 45.72089296 -0.35608277 44.75452185 -6.8125 44.25 C-12.89137902 42.57857442 -17.21759722 37.19553009 -20.8125 32.25 C-22.97625496 25.75873511 -23.10398471 17.08310407 -20.3125 10.75 C-15.69439687 3.05316145 -8.62473552 0.11022026 0 0 Z M-12.5625 9.5 C-16.25066458 14.00775671 -18.15345179 17.95752891 -17.75 23.8125 C-16.88988011 29.2506774 -14.4213938 32.6411062 -10.5625 36.5 C-5.85080338 39.49835239 -1.31153636 40.80626078 4.25 39.75 C10.21013746 37.90798901 14.01377107 34.19398855 17.1875 28.9375 C18.78782004 23.03631984 18.28927429 17.91057182 15.5 12.4375 C12.47844606 8.27265538 9.91837446 5.9045071 4.82421875 4.68359375 C-2.25911459 3.66247589 -6.93246887 4.89361089 -12.5625 9.5 Z " fill="#FF3321" transform="translate(47.8125,-0.25)"/>
</svg>
