<?xml version="1.0" encoding="UTF-8"?>
<svg version="1.1" xmlns="http://www.w3.org/2000/svg" width="101" height="100">
<path d="M0 0 C3.5625 0.1875 3.5625 0.1875 5.5625 2.1875 C5.5625 6.4775 5.5625 10.7675 5.5625 15.1875 C15.1325 15.1875 24.7025 15.1875 34.5625 15.1875 C34.5625 11.5575 34.5625 7.9275 34.5625 4.1875 C35.5525 2.8675 36.5425 1.5475 37.5625 0.1875 C41.125 -0.1875 41.125 -0.1875 44.5625 0.1875 C46.5625 2.1875 46.5625 2.1875 46.6875 4.8125 C46.64625 5.59625 46.605 6.38 46.5625 7.1875 C47.7071875 7.06375 47.7071875 7.06375 48.875 6.9375 C51.5625 7.1875 51.5625 7.1875 53.375 8.9375 C54.5625 11.1875 54.5625 11.1875 54.5625 15.1875 C55.18125 15.31125 55.8 15.435 56.4375 15.5625 C58.5625 16.1875 58.5625 16.1875 60.5625 18.1875 C60.9375 20.625 60.9375 20.625 60.5625 23.1875 C58.51825462 25.16360386 57.4448175 26.1875 54.5625 26.1875 C54.376875 27.610625 54.376875 27.610625 54.1875 29.0625 C53.5625 32.1875 53.5625 32.1875 51.5625 34.1875 C48.9375 34.3125 48.9375 34.3125 46.5625 34.1875 C46.2325 36.1675 45.9025 38.1475 45.5625 40.1875 C39.39008621 41.61190318 39.39008621 41.61190318 36.125 39.9375 C34.5625 37.1875 34.5625 37.1875 34.5625 26.1875 C24.9925 26.1875 15.4225 26.1875 5.5625 26.1875 C5.5625 30.1475 5.5625 34.1075 5.5625 38.1875 C4.5725 39.1775 3.5825 40.1675 2.5625 41.1875 C-1 41.0625 -1 41.0625 -4.4375 40.1875 C-6.4375 37.1875 -6.4375 37.1875 -6.4375 34.1875 C-8.4175 33.8575 -10.3975 33.5275 -12.4375 33.1875 C-12.7675 30.8775 -13.0975 28.5675 -13.4375 26.1875 C-14.241875 26.06375 -15.04625 25.94 -15.875 25.8125 C-17.1434375 25.503125 -17.1434375 25.503125 -18.4375 25.1875 C-19.83181504 22.39886993 -19.69410094 20.26671132 -19.4375 17.1875 C-16.4375 15.1875 -16.4375 15.1875 -13.4375 15.1875 C-13.2828125 13.516875 -13.2828125 13.516875 -13.125 11.8125 C-12.898125 10.61625 -12.67125 9.42 -12.4375 8.1875 C-9.4375 6.1875 -9.4375 6.1875 -6.4375 6.1875 C-6.128125 5.383125 -5.81875 4.57875 -5.5 3.75 C-4.03641107 0.22016788 -4.03641107 0.22016788 0 0 Z M-1.4375 4.1875 C-1.4375 14.7475 -1.4375 25.3075 -1.4375 36.1875 C-0.4475 36.1875 0.5425 36.1875 1.5625 36.1875 C1.5625 25.9575 1.5625 15.7275 1.5625 5.1875 C0.5725 4.8575 -0.4175 4.5275 -1.4375 4.1875 Z M39.5625 4.1875 C39.5625 14.7475 39.5625 25.3075 39.5625 36.1875 C40.5525 36.1875 41.5425 36.1875 42.5625 36.1875 C42.5625 25.9575 42.5625 15.7275 42.5625 5.1875 C41.5725 4.8575 40.5825 4.5275 39.5625 4.1875 Z M-8.4375 11.1875 C-8.4375 17.4575 -8.4375 23.7275 -8.4375 30.1875 C-7.7775 30.1875 -7.1175 30.1875 -6.4375 30.1875 C-6.4375 23.9175 -6.4375 17.6475 -6.4375 11.1875 C-7.0975 11.1875 -7.7575 11.1875 -8.4375 11.1875 Z M47.5625 11.1875 C46.11861429 12.40178988 46.11861429 12.40178988 46.46484375 16.00390625 C46.47151911 17.58596682 46.48348125 19.16801159 46.5 20.75 C46.50451172 21.55630859 46.50902344 22.36261719 46.51367188 23.19335938 C46.52549482 25.19143756 46.54343086 27.18947783 46.5625 29.1875 C47.5525 29.5175 48.5425 29.8475 49.5625 30.1875 C49.5625 23.9175 49.5625 17.6475 49.5625 11.1875 C48.9025 11.1875 48.2425 11.1875 47.5625 11.1875 Z M-14.4375 19.1875 C-14.4375 22.1875 -14.4375 22.1875 -14.4375 22.1875 Z M5.5625 19.1875 C5.5625 20.1775 5.5625 21.1675 5.5625 22.1875 C15.1325 22.1875 24.7025 22.1875 34.5625 22.1875 C34.5625 21.1975 34.5625 20.2075 34.5625 19.1875 C24.9925 19.1875 15.4225 19.1875 5.5625 19.1875 Z M54.5625 19.1875 C55.5625 22.1875 55.5625 22.1875 55.5625 22.1875 Z " fill="#FF3221" transform="translate(39.4375,57.8125)"/>
<path d="M0 0 C5.37887686 3.970333 9.18183872 7.95957865 11.32421875 14.38671875 C11.45203661 17.06066839 11.36813746 19.70767732 11.32421875 22.38671875 C-4.47362814 29.75155129 -4.47362814 29.75155129 -10.67578125 29.38671875 C-10.67578125 28.06671875 -10.67578125 26.74671875 -10.67578125 25.38671875 C-8.05224607 24.38272351 -5.4271033 23.3833743 -2.80078125 22.38671875 C-2.05441406 22.10054687 -1.30804688 21.814375 -0.5390625 21.51953125 C5.09765625 19.38671875 5.09765625 19.38671875 7.32421875 19.38671875 C3.78688284 11.13836865 0.02347955 5.37442477 -8.30078125 1.57421875 C-17.97367892 -1.82920821 -28.2393329 -1.79160912 -37.67578125 2.38671875 C-42.93546733 5.46622407 -46.77934414 8.94141699 -49.67578125 14.38671875 C-50.00578125 16.03671875 -50.33578125 17.68671875 -50.67578125 19.38671875 C-42.26078125 22.35671875 -42.26078125 22.35671875 -33.67578125 25.38671875 C-33.67578125 26.70671875 -33.67578125 28.02671875 -33.67578125 29.38671875 C-40.42593162 28.98965108 -50.74962725 27.31287275 -55.67578125 22.38671875 C-56.23285936 16.03602827 -55.39483154 11.62910885 -51.67578125 6.38671875 C-38.9973756 -7.95682313 -16.04034722 -9.67104146 0 0 Z " fill="#FF3220" transform="translate(57.67578125,41.61328125)"/>
<path d="M0 0 C3.83084349 2.61193874 6.65161815 5.67823629 8.75 9.875 C9.2738576 15.13075165 9.41505372 19.52026095 7.0625 24.3125 C3.45519134 28.30978798 0.26132091 31.52721202 -5.30078125 32.078125 C-10.39891633 32.18378583 -13.90683383 31.83624966 -18.25 28.875 C-22.38798557 24.66973011 -24.40906972 21.53610361 -24.5625 15.625 C-24.50927779 10.53562631 -23.74801724 7.75118126 -20.25 3.875 C-14.1759314 -1.60647654 -7.71860589 -2.67182511 0 0 Z M-19.25 9.625 C-20.50750186 13.71188104 -20.63290521 16.81009679 -19.25 20.875 C-16.73484648 24.00194762 -14.16493659 26.75644669 -10.25 27.875 C-5.35939684 27.79737138 -3.24492462 27.65363666 0.625 24.625 C3.49775182 20.90732117 4.85944257 18.62608114 4.5625 13.875 C3.29513406 9.19549497 2.03605431 6.68577337 -2.125 4.0625 C-9.20760453 1.37111028 -14.84628726 3.56989498 -19.25 9.625 Z " fill="#FF3120" transform="translate(43.25,2.125)"/>
</svg>
