<?xml version="1.0" standalone="no"?>
<!DOCTYPE svg PUBLIC "-//W3C//DTD SVG 20010904//EN"
 "http://www.w3.org/TR/2001/REC-SVG-20010904/DTD/svg10.dtd">
<svg version="1.0" xmlns="http://www.w3.org/2000/svg"
 width="113.000000pt" height="113.000000pt" viewBox="0 0 113.000000 113.000000"
 preserveAspectRatio="xMidYMid meet">

<g transform="translate(0.000000,113.000000) scale(0.100000,-0.100000)"
fill="#000000" stroke="none">
<path d="M310 1088 c-52 -27 -78 -60 -90 -114 -16 -71 12 -142 74 -188 40 -30
153 -30 193 0 67 50 94 130 68 205 -20 55 -40 77 -90 100 -54 25 -102 24 -155
-3z m160 -30 c94 -65 90 -194 -9 -252 -119 -69 -262 60 -205 185 37 84 142
116 214 67z"/>
<path d="M294 705 c-119 -26 -215 -96 -253 -186 -36 -83 -29 -98 64 -135 95
-39 160 -53 153 -34 -2 7 -35 22 -73 34 -93 30 -135 53 -135 74 1 36 39 99 85
140 71 62 140 85 255 85 117 0 186 -24 259 -89 50 -45 89 -119 78 -148 -6 -14
-153 -76 -182 -76 -8 0 -15 -7 -15 -15 0 -8 4 -15 8 -15 19 0 114 32 166 56
66 30 70 48 32 129 -43 94 -148 164 -276 184 -79 13 -89 13 -166 -4z"/>
<path d="M390 451 c-5 -11 -10 -27 -10 -35 0 -10 -9 -16 -23 -16 -32 0 -57
-30 -57 -67 0 -26 -5 -31 -29 -36 -41 -8 -57 -41 -37 -72 9 -13 26 -25 38 -27
17 -2 24 -11 26 -33 4 -37 28 -65 56 -65 16 0 24 -9 31 -33 8 -26 16 -33 41
-35 49 -5 64 18 64 99 l0 69 175 0 175 0 0 -66 c0 -81 11 -104 50 -104 33 0
60 23 60 51 0 13 7 19 23 19 32 0 57 30 57 68 0 27 4 32 24 32 31 0 48 22 44
57 -2 22 -10 30 -35 38 -29 8 -33 14 -33 42 0 36 -35 68 -64 57 -12 -4 -16 0
-16 16 0 40 -18 60 -55 60 -44 0 -55 -20 -55 -104 l0 -66 -175 0 -175 0 0 69
c0 50 -4 74 -16 85 -22 23 -71 20 -84 -3z m65 -201 c0 -184 0 -185 -22 -188
l-23 -3 0 191 0 191 23 -3 c22 -3 22 -4 22 -188z m463 -3 l2 -187 -25 0 -25 0
0 183 c0 101 3 187 7 191 4 4 14 5 23 4 13 -3 15 -31 18 -191z m-549 109 c8
-9 11 -50 9 -117 -3 -92 -5 -104 -22 -107 -10 -2 -22 2 -27 10 -14 21 -11 202
3 216 16 16 23 15 37 -2z m626 -107 c0 -107 -1 -114 -20 -114 -19 0 -20 8 -23
109 -2 81 1 112 10 118 28 17 33 -1 33 -113z m-697 -2 c2 -11 -3 -17 -17 -17
-23 0 -35 15 -26 31 10 15 39 6 43 -14z m542 3 c0 -19 -7 -20 -175 -20 -168 0
-175 1 -175 20 0 19 7 20 175 20 168 0 175 -1 175 -20z m235 0 c0 -8 -10 -16
-22 -18 -18 -3 -23 2 -23 18 0 16 5 21 23 18 12 -2 22 -10 22 -18z"/>
</g>
</svg>
